<?xml version="1.0" standalone="yes"?>
<svg xmlns="http://www.w3.org/2000/svg" width="500" height="500">
<path style="fill:#fe5d5b; stroke:none;" d="M0 0L0 500L500 500L500 0L0 0z"/>
<path style="fill:#f7ada8; stroke:none;" d="M182 200L188 205L188 206C180.06 213.412 191.077 220.179 196.561 225.68C208.387 237.543 220.232 249.388 232.101 261.207C236.468 265.555 242.18 273.977 248.155 275.965C253.164 277.631 257.964 271.026 261 267.999L290 239C298.369 230.631 321.592 215.937 311 204L317 199L317 198L311 193C318.613 184.31 311.326 179.875 304.681 173.207C292.003 160.488 279.298 147.799 266.695 135.005C262.916 131.169 256.29 121.769 250.76 120.852C244.131 119.752 234.192 133.808 230 138L199 169C194.547 173.453 187.895 178.259 185.104 184C182.985 188.359 183.928 194.875 182 200z"/>
<path style="fill:#fe5d5b; stroke:none;" d="M249 121L185 185L185 186C192.479 191.892 198.718 181.625 203.774 176.485C218.66 161.355 235.402 147.307 249 131L250 131L309 191L310 191C315.626 182.458 304.712 175.712 299 170C282.799 153.799 267.223 134.898 249 121M192 194L196 197L197 197L235 159L250 146.722L265 159L303 197L304 197L308 193C296.319 177.684 280.613 164.613 267 151C262.707 146.707 256.304 137.325 250.095 136.043C244.807 134.951 238.138 144.726 234.886 148.005C224.87 158.103 214.604 167.965 204.712 178.182C200.027 183.021 194.038 187.392 192 194M302 199C291.151 184.775 276.642 172.641 264 160C260.614 156.614 254.557 147.926 249 149.062C239.585 150.986 227.734 168.288 221.011 175.011C216.133 179.889 200.034 191.555 199.917 198.765C199.847 203.047 206.357 207.876 209.114 210.58C218.666 219.948 228.193 229.391 237.559 238.943C240.656 242.102 245.849 249.902 251.054 248.293C257.086 246.428 262.669 238.331 267 234L302 199M189 194C182.58 202.476 197.498 202.039 189 194M309 194L305 198L305 199L314 200L309 194M303 200L264 239C260.564 242.435 254.537 251.116 249.005 250.496C244.336 249.973 240.059 243.805 236.905 240.765C227.556 231.753 218.449 222.481 209.332 213.235C206.821 210.687 199.017 200.496 194.755 203.257C189.769 206.487 201.695 216.061 203.714 218.102C214.603 229.111 225.387 240.177 236.462 250.995C239.608 254.068 244.934 262.22 250.053 261.066C255.27 259.892 260.612 252.794 264.273 249.103C274.976 238.313 285.631 227.481 296.402 216.758C301.36 211.821 309.757 206.552 303 200M186 213C201.897 227.648 216.709 243.709 232 259C236.063 263.063 243.732 274.163 250 274.163C256.268 274.163 263.937 263.063 268 259L315 212L315 211C306.914 205.255 301.788 213.807 296.102 219.4C281.876 233.393 260.979 248.74 251 266C233.587 255.687 218.527 235.344 204.31 221C199.897 216.548 190.672 203.208 186 213z"/>
<path style="fill:#410808; stroke:none;" d="M244 298C246.123 305.462 254.673 305.159 257 298C252.49 300.387 250.11 301.657 246 298L244 298M156 307L156 338C164.225 338 186.055 333.659 172 322C178.22 308.701 167.08 306.253 156 307M202.001 306.705C181.74 311.88 189.931 343.457 210 338.037C230.926 332.384 222.49 301.472 202.001 306.705M262 306L241 332L241 307L238 307L238 338C248.034 335.11 252.852 320.054 260 313L260 338L263 338L262 306M316 338L320 338C322.354 330.996 329.522 324.135 337.385 329.36C341.054 331.798 341.717 336.037 346 338L336.709 315.003L331.123 307.947L325.578 315.006L316 338M279 307L279 338L283 338L283 323C295.916 323 298.998 324.754 299 338L302 338L302 307L299 307L299 320L283 320L283 307L279 307z"/>
<path style="fill:#fe5d5b; stroke:none;" d="M203.014 309.77C187.011 313.849 193.027 338.515 208.986 334.854C225.185 331.138 219.152 305.657 203.014 309.77M160 310L160 320C172.469 319.784 172.507 310.133 160 310M331 311L327 325L337 324L331 311z"/>
<path style="fill:#f7ada8; stroke:none;" d="M258 314L259 315L258 314z"/>
<path style="fill:#fe5d5b; stroke:none;" d="M160 323L160 335C174.826 334.883 174.739 323.214 160 323z"/>
<path style="fill:#f7ada8; stroke:none;" d="M242 329L243 330L242 329M208 366L208 378L212 374L213 374L213 378L215 378L215 374L216 374L221 378C218.615 373.552 218.612 370.794 220 366L215 370L215 366L214 366L213 370L208 366M225 366L227 378L233 366L232 366L229 372L225 366M238 366L238 378L240 378L240 374L246 373C245.489 367.535 243.319 366.259 238 366M252 366L252 378L253 378L253 373L259 378L260 378L260 366L259 366L253 371L252 366M270 366L266 378L267 378C270.19 375.271 272.142 374.641 275 378L276 378L272 366L270 366M286 366L281 378L286 369L287 369L292 378L288 366L286 366z"/>
<path style="fill:#fe5d5b; stroke:none;" d="M240 368L240 372L244 368L240 368M270 370L273 373L270 370z"/>
</svg>
